# AST/ASF file generated using VICON BodyLanguage
# -----------------------------------------------
:version 1.10
:name VICON
:units
  mass 1.0
  length 0.45
  angle deg
:documentation
   .ast/.asf automatically generated from VICON data using
   VICON BodyBuilder and BodyLanguage model FoxedUp or BRILLIANT.MOD
:root
   order TX TY TZ RX RY RZ
   axis XYZ
   position 0 0 0  
   orientation 0 0 0 
:bonedata
  begin
     id 1 
     name lhipjoint
     direction 0.547975 -0.797114 0.253638 
     length 2.36201 
     axis 0 0 0  XYZ
  end
  begin
     id 2 
     name lfemur
     direction 0.34202 -0.939693 0  
     length 7.69075  
     axis 0 0 20  XYZ
    dof rx ry rz
    limits (-160.0 20.0)
           (-70.0 70.0)
           (-60.0 70.0)
  end
  begin
     id 3 
     name ltibia
     direction 0.34202 -0.939693 0   
     length 7.91399   
     axis 0 0 20   XYZ
    dof rx
    limits (-10.0 170.0)
  end
  begin
     id 4 
     name lfoot
     direction 0.0705293 -0.193778 0.978507   
     length 2.13618   
     axis -90 7.62852e-016 20   XYZ
    dof rx rz
    limits (-45.0 90.0)
           (-70.0 20.0)
  end
  begin
     id 5 
     name ltoes
     direction 1.53592e-011 -4.21925e-011 1   
     length 1.07518   
     axis -90 7.62852e-016 20   XYZ
    dof rx
    limits (-90.0 20.0)
  end
  begin
     id 6 
     name rhipjoint
     direction -0.57 -0.782963 0.249136   
     length 2.4047  
     axis 0 0 0  XYZ 
  end
  begin
     id 7 
     name rfemur
     direction -0.34202 -0.939693 0   
     length 7.51486   
     axis 0 0 -20   XYZ
    dof rx ry rz
    limits (-160.0 20.0)
           (-70.0 70.0)
           (-70.0 60.0)
  end
  begin
     id 8 
     name rtibia
     direction -0.34202 -0.939693 0   
     length 8.08317   
     axis 0 0 -20   XYZ
    dof rx
    limits (-10.0 170.0)
 end
 begin
     id 9 
     name rfoot
     direction -0.104954 -0.281256 0.953876   
     length 2.30343  
     axis -90 -7.62852e-016 -20   XYZ
    dof rx rz
    limits (-45.0 90.0)
           (-20.0 70.0)
  end
  begin
     id 10 
     name rtoes
     direction -1.53556e-011 -4.21922e-011 1   
     length 1.14803   
     axis -90 -7.62852e-016 -20   XYZ
    dof rx
    limits (-90.0 20.0)
  end
  begin
     id 11 
     name lowerback
     direction -0.0152855 0.99353 -0.11254   
     length 2.05311   
     axis 0 0 0   XYZ
    dof rx ry rz
    limits (-20.0 45.0)
           (-30.0 30.0)
           (-30.0 30.0)
  end
  begin
     id 12 
     name upperback
     direction -0.00157509 0.999443 -0.033332   
     length 2.06353   
     axis 0 0 0   XYZ
    dof rx ry rz
    limits (-20.0 45.0)
           (-30.0 30.0)
           (-30.0 30.0)
  end
  begin
     id 13 
     name thorax
     direction 0.00577788 0.999804 0.0189484   
     length 2.08472   
     axis 0 0 0   XYZ
    dof rx ry rz
    limits (-20.0 45.0)
           (-30.0 30.0)
           (-30.0 30.0)
  end
  begin
     id 14 
     name lowerneck
     direction -1.09301e-005 0.994719 0.10264   
     length 1.76249   
     axis 0 0 0   XYZ
    dof rx ry rz
    limits (-20.0 45.0)
           (-30.0 30.0)
           (-30.0 30.0)
  end
  begin
     id 15 
     name upperneck
     direction 0.0495018 0.988526 -0.142706   
     length 1.77897   
     axis 0 0 0   XYZ
    dof rx ry rz
    limits (-20.0 45.0)
           (-30.0 30.0)
           (-30.0 30.0)
  end
  begin
     id 16
     name head
     direction 0.0142736 0.998114 -0.0597101  
     length 1.78934  
     axis 0 0 0   XYZ
    dof rx ry rz
    limits (-20.0 45.0)
           (-30.0 30.0)
           (-30.0 30.0)
  end
  begin
     id 17 
     name lclavicle
     direction 0.918111 0.396107 -0.0130883  
     length 3.37276  
     axis 0 0 0   XYZ
    dof ry rz
    limits (-20.0 10.0)
           (0.0 20.0)
  end
  begin
     id 18 
     name lhumerus
     direction 1 -4.48975e-011 -3.26108e-027   
     length 5.34298   
     axis 180 -30 -90   XYZ
    dof rx ry rz
    limits (-60.0 90.0)
           (-90.0 90.0)
           (-90.0 90.0)
  end
  begin
     id 19
     name lradius
     direction 1 -4.48964e-011 -8.84413e-028   
     length 3.67262   
     axis 180 -30 -90   XYZ
    dof rx
    limits (-10.0 170.0)
  end
  begin
     id 20
     name lwrist
     direction 1 -4.48991e-011 -1.24264e-027   
     length 1.83631   
     axis -2.17013e-015 90 90   XYZ
    dof ry
    limits (-180.0 0.0)
 end
  begin
     id 21 
     name lhand
     direction 1 -4.48855e-011 -2.48528e-027   
     length 0.599298   
     axis 1.58582e-015 90 90   XYZ
    dof rx rz
    limits (-90.0 90.0)
           (-45.0 45.0)
  end
  begin
     id 22 
     name lfingers
     direction 1 -4.48811e-011 -4.97056e-027   
     length 0.48317   
     axis 3.17164e-015 90 90   XYZ
    dof rx
    limits (0.0 90.0)
  end
  begin
     id 23
     name lthumb
     direction 0.707107 -6.34882e-011 0.707107   
     length 0.693738   
     axis -90 45 2.85299e-015   XYZ
    dof rx rz
    limits (-45.0 45.0)
           (-45.0 45.0)
  end
  begin
     id 24 
     name rclavicle
     direction -0.920511 0.384752 -0.0680135   
     length 3.43787  
     axis 0 0 0   XYZ 
    dof ry rz
    limits (-10.0 20.0)
           (-20.0 0.0)
  end
  begin
     id 25 
     name rhumerus
     direction -0.999976 -0.00330524 0.00603274  
     length 5.5498   
     axis 180 30 90   XYZ
    dof rx ry rz
    limits (-90.0 60.0)
           (-90.0 90.0)
           (-90.0 90.0)
  end
  begin
     id 26 
     name rradius
     direction -1 -4.48967e-011 8.62438e-027   
     length 3.69401   
     axis 180 30 90   XYZ
    dof rx
    limits (-10.0 170.0)
  end
  begin
     id 27 
     name rwrist
     direction -1 -4.4897e-011 9.54866e-027   
     length 1.84701   
     axis -7.69462e-015 -90 -90   XYZ
    dof ry
    limits (-180.0 0.0)
  end
  begin
     id 28
     name rhand
     direction -1 -4.48982e-011 1.90973e-026   
     length 0.638113   
     axis -1.21857e-014 -90 -90   XYZ
    dof rx rz
    limits (-90.0 90.0)
           (-45.0 45.0)
  end
  begin
     id 29
     name rfingers
     direction -1 -4.48936e-011 3.81946e-026   
     length 0.514463   
     axis -2.43714e-014 -90 -90   XYZ
    dof rx
    limits (0.0 90.0)
  end
  begin
     id 30
     name rthumb
     direction -0.707107 -6.34942e-011 0.707107   
     length 0.738669   
     axis -90 -45 -2.85299e-015   XYZ
    dof rx rz
    limits (-45.0 45.0)
           (-45.0 45.0)
  end
:hierarchy
  begin
    root lhipjoint rhipjoint lowerback
    lhipjoint lfemur
    lfemur ltibia
    ltibia lfoot
    lfoot ltoes
    rhipjoint rfemur
    rfemur rtibia
    rtibia rfoot
    rfoot rtoes
    lowerback upperback
    upperback thorax
    thorax lowerneck lclavicle rclavicle
    lowerneck upperneck
    upperneck head
    lclavicle lhumerus
    lhumerus lradius
    lradius lwrist
    lwrist lhand lthumb
    lhand lfingers
    rclavicle rhumerus
    rhumerus rradius
    rradius rwrist
    rwrist rhand rthumb
    rhand rfingers
  end

#!OML:ASF F:\twosubjects\two\Thursday\Session 1\Rory.ASF
:FULLY-SPECIFIED
:DEGREES
230
root 11.8343 18.8983 11.1736 -152.247 -77.6343 155.54
lowerback -1.97833 -1.84967 -8.5856
upperback 0.945612 -2.25433 -2.8407
thorax 2.30662 -1.26487 1.76712
lowerneck 3.01063 -17.4103 -15.1803
upperneck 11.5665 -28.981 24.3183
head 9.09282 -14.2313 7.1604
rclavicle 4.02042e-014 1.11319e-014
rhumerus -39.6407 -20.4963 -77.1116
rradius 56.7051
rwrist 4.62753
rhand -33.1965 30.8121
rfingers 7.12502
rthumb -6.40392 0.928948
lclavicle 4.02042e-014 1.11319e-014
lhumerus -40.5914 14.0492 71.4113
lradius 38.9346
lwrist -10.2406
lhand -6.75776 31.9415
lfingers 7.12502
lthumb 19.1038 61.0233
rfemur -6.47481 15.3622 5.49407
rtibia 11.2515
rfoot -6.75316 -10.727
rtoes -2.83563
lfemur -4.59748 3.9221 -25.0031
ltibia 12.174
lfoot -9.5791 6.33785
ltoes 15.0387
231
root 11.8259 18.8967 11.1584 -152.778 -77.609 156.029
lowerback -2.05303 -1.8533 -8.5089
upperback 0.996551 -2.24748 -2.7733
thorax 2.4009 -1.26402 1.79085
lowerneck 2.89309 -17.3657 -15.3356
upperneck 11.7627 -28.9953 24.3972
head 9.22358 -14.2242 7.18872
rclavicle 5.38209e-014 3.02153e-014
rhumerus -39.7218 -21.135 -76.779
rradius 58.1524
rwrist 4.00976
rhand -34.2067 31.7767
rfingers 7.12502
rthumb -7.37904 1.92538
lclavicle 5.38209e-014 3.02153e-014
lhumerus -40.7555 13.7801 71.6405
lradius 39.2775
lwrist -9.94334
lhand -6.79302 31.7801
lfingers 7.12502
lthumb 19.0699 60.8653
rfemur -6.29486 15.301 5.66622
rtibia 11.0321
rfoot -6.67845 -10.6711
rtoes -3.2564
lfemur -4.57217 3.75495 -24.8663
ltibia 12.3299
lfoot -9.83495 6.61719
ltoes 15.7743
232
root 11.8168 18.8948 11.1492 -152.967 -77.5391 156.155
lowerback -2.08831 -1.82361 -8.44777
upperback 1.04994 -2.20143 -2.75385
thorax 2.47038 -1.24358 1.777
lowerneck 2.94134 -17.3646 -15.4045
upperneck 11.7086 -29.0445 24.5758
head 9.25267 -14.2525 7.24936
rclavicle -1.31198e-014 -9.54166e-015
rhumerus -39.9482 -21.9168 -76.3742
rradius 59.7581
rwrist 3.72575
rhand -35.3513 31.8291
rfingers 7.12502
rthumb -8.48377 2.01948
lclavicle -1.31198e-014 -9.54166e-015
lhumerus -40.7563 13.6925 71.7733
lradius 39.409
lwrist -10.0072
lhand -6.57697 31.7662
lfingers 7.12502
lthumb 19.2776 60.8307
rfemur -6.04608 15.6316 5.71413
rtibia 10.7661
rfoot -6.56377 -10.9795
rtoes -3.70483
lfemur -4.53507 3.5168 -24.8431
ltibia 12.4874
lfoot -10.0335 6.98084
ltoes 14.9814
233
root 11.8118 18.9006 11.1416 -153.194 -77.401 156.432
lowerback -2.16849 -1.82082 -8.32398
upperback 1.03909 -2.19261 -2.76353
thorax 2.49804 -1.23761 1.69674
lowerneck 3.02476 -17.3544 -15.3795
upperneck 11.7249 -29.0899 24.6706
head 9.26797 -14.2804 7.27729
rclavicle -2.50966e-014 -1.90833e-014
rhumerus -39.9945 -22.5899 -76.1148
rradius 61.2317
rwrist 3.21836
rhand -35.611 32.1746
rfingers 7.12502
rthumb -8.73447 2.37537
lclavicle -2.50966e-014 -1.90833e-014
lhumerus -40.6102 13.8994 71.7477
lradius 39.1977
lwrist -10.2896
lhand -6.56833 31.8353
lfingers 7.12502
lthumb 19.2859 60.899
rfemur -5.99698 15.8759 5.69357
rtibia 10.5885
rfoot -6.64813 -11.051
rtoes -2.95811
lfemur -4.55977 3.45143 -24.8312
ltibia 12.501
lfoot -10.1412 7.07759
ltoes 14.0655
234
root 11.8097 18.9038 11.133 -153.44 -77.3774 156.655
lowerback -2.12807 -1.88531 -8.16089
upperback 0.97401 -2.29198 -2.80133
thorax 2.40806 -1.27988 1.56595
lowerneck 3.11479 -17.254 -15.2711
upperneck 11.9855 -29.0232 24.5525
head 9.28647 -14.2525 7.25445
rclavicle -8.74653e-015 -1.82882e-014
rhumerus -40.079 -23.0121 -76.04
rradius 62.6242
rwrist 2.71346
rhand -36.1657 32.2616
rfingers 7.12502
rthumb -9.26973 2.48535
lclavicle -8.74653e-015 -1.82882e-014
lhumerus -40.6703 13.8683 71.7041
lradius 39.0778
lwrist -10.3019
lhand -6.89006 31.8316
lfingers 7.12502
lthumb 18.9766 60.9259
rfemur -5.9406 15.9613 5.73996
rtibia 10.5418
rfoot -6.75641 -10.9635
rtoes -2.50519
lfemur -4.44312 3.27232 -24.7833
ltibia 12.3804
lfoot -10.2011 7.26884
ltoes 13.02
235
root 11.8055 18.9036 11.1217 -152.569 -77.4211 155.629
lowerback -1.99426 -1.98634 -8.26579
upperback 0.952809 -2.44218 -2.89177
thorax 2.32436 -1.35402 1.52827
lowerneck 3.33669 -17.1909 -15.0802
upperneck 12.0622 -28.9491 24.3995
head 9.19706 -14.2363 7.22552
rclavicle -2.26615e-014 1.11319e-014
rhumerus -40.1698 -23.2956 -75.9082
rradius 63.9825
rwrist 2.10274
rhand -37.7389 32.1123
rfingers 7.12502
rthumb -10.7875 2.40931
lclavicle -2.26615e-014 1.11319e-014
lhumerus -40.9203 13.659 71.6686
lradius 39.2461
lwrist -10.0858
lhand -7.1285 31.911
lfingers 7.12502
lthumb 18.7472 61.0277
rfemur -5.73214 16.283 5.58303
rtibia 10.57
rfoot -6.98176 -11.1747
rtoes -1.92745
lfemur -4.16777 3.06147 -24.942
ltibia 12.192
lfoot -10.2225 7.48474
ltoes 12.0443
236
root 11.7984 18.9049 11.1058 -152.106 -77.4758 155.069
lowerback -1.96422 -2.1348 -8.37588
upperback 0.996318 -2.63686 -2.8386
thorax 2.37792 -1.45513 1.63364
lowerneck 3.5349 -17.1189 -15.1509
upperneck 11.9617 -28.8713 24.4955
head 9.13872 -14.2232 7.30553
rclavicle -2.44008e-014 5.64548e-014
rhumerus -39.8973 -23.5986 -75.6558
rradius 65.2311
rwrist 1.40363
rhand -38.3906 32.7806
rfingers 7.12502
rthumb -11.416 3.11143
lclavicle -2.44008e-014 5.64548e-014
lhumerus -41.1893 13.7528 71.7155
lradius 39.4
lwrist -10.0975
lhand -7.53084 32.2108
lfingers 7.12502
lthumb 18.3602 61.3643
rfemur -5.59701 15.9421 5.55785
rtibia 10.633
rfoot -7.1091 -10.7765
rtoes -1.62528
lfemur -3.91621 3.02745 -24.9615
ltibia 11.9532
lfoot -10.2228 7.5131
ltoes 11.9566
